<?xml version="1.0" encoding="utf-8"?>
<!-- Generator: Adobe Illustrator 24.1.1, SVG Export Plug-In . SVG Version: 6.00 Build 0)  -->
<svg version="1.1" id="Capa_1" xmlns="http://www.w3.org/2000/svg" xmlns:xlink="http://www.w3.org/1999/xlink" x="0px" y="0px"
	 viewBox="0 0 10 10" style="enable-background:new 0 0 10 10;" xml:space="preserve">
<style type="text/css">
	.st0{fill:#009245;}
	.st1{fill:#DBE7F3;}
	.st2{fill:#1D1D1B;}
	.st3{fill:#006837;}
	.st4{fill:#39B54A;}
	.st5{fill:#8CC63F;}
	.st6{font-family:'MyriadPro-Regular';}
	.st7{font-size:2.9922px;}
</style>
<g>
	<rect x="0.44" y="6.37" class="st0" width="5.09" height="1.5"/>
	<g>
		<path d="M0.56,7.87c0-0.5,0-1,0-1.5C0.52,6.41,0.48,6.45,0.44,6.49c1.49,0,2.97,0,4.46,0c0.21,0,0.42,0,0.63,0
			C5.49,6.45,5.45,6.41,5.41,6.37c0,0.5,0,1,0,1.5c0.04-0.04,0.08-0.08,0.12-0.12c-1.49,0-2.97,0-4.46,0c-0.21,0-0.42,0-0.63,0
			c-0.15,0-0.15,0.24,0,0.24c1.49,0,2.97,0,4.46,0c0.21,0,0.42,0,0.63,0c0.06,0,0.12-0.05,0.12-0.12c0-0.5,0-1,0-1.5
			c0-0.06-0.05-0.12-0.12-0.12c-1.49,0-2.97,0-4.46,0c-0.21,0-0.42,0-0.63,0c-0.06,0-0.12,0.05-0.12,0.12c0,0.5,0,1,0,1.5
			C0.32,8.02,0.56,8.02,0.56,7.87z"/>
	</g>
</g>
<g>
	<path class="st1" d="M9.11,7.87H4.64c-0.17,0-0.31-0.14-0.31-0.31V0.92c0-0.17,0.14-0.31,0.31-0.31h4.46
		c0.17,0,0.31,0.14,0.31,0.31v6.64C9.41,7.73,9.28,7.87,9.11,7.87z"/>
	<g>
		<path class="st2" d="M9.11,7.75c-0.71,0-1.42,0-2.12,0c-0.51,0-1.01,0-1.52,0c-0.23,0-0.58,0.07-0.81,0
			c-0.27-0.08-0.2-0.36-0.2-0.56c0-0.38,0-0.77,0-1.15c0-1.02,0-2.04,0-3.06c0-0.45,0-0.89,0-1.34c0-0.19-0.06-0.49,0-0.67
			c0.09-0.29,0.37-0.22,0.6-0.22c0.45,0,0.9,0,1.35,0c0.51,0,1.03,0,1.54,0c0.34,0,0.73-0.05,1.06,0c0.26,0.04,0.28,0.19,0.28,0.4
			c0,0.32,0,0.64,0,0.96c0,1.14,0,2.27,0,3.41c0,0.48,0,0.97,0,1.45c0,0.21,0.11,0.73-0.22,0.79C8.92,7.78,8.99,8.01,9.14,7.98
			C9.5,7.93,9.53,7.64,9.53,7.34c0-0.38,0-0.75,0-1.13c0-1.12,0-2.25,0-3.37c0-0.63,0.06-1.29,0-1.92C9.49,0.51,9.16,0.5,8.84,0.5
			c-0.45,0-0.9,0-1.35,0c-0.93,0-1.87-0.06-2.8,0C4.04,0.54,4.22,1.44,4.22,1.88c0,1.1,0,2.19,0,3.29c0,0.78-0.04,1.57,0,2.34
			c0.02,0.36,0.25,0.47,0.57,0.47c0.47,0.01,0.94,0,1.41,0c0.97,0,1.94,0,2.91,0C9.26,7.99,9.26,7.75,9.11,7.75z"/>
	</g>
</g>
<g>
	<g>
		<path d="M5.25,1.95c0.95,0,1.9,0,2.84,0c0.13,0,0.27,0,0.4,0c0.19,0,0.19-0.3,0-0.3c-0.95,0-1.9,0-2.84,0c-0.13,0-0.27,0-0.4,0
			C5.06,1.65,5.06,1.95,5.25,1.95L5.25,1.95z"/>
	</g>
</g>
<g>
	<g>
		<path d="M5.25,2.39c0.95,0,1.9,0,2.84,0c0.13,0,0.27,0,0.4,0c0.19,0,0.19-0.3,0-0.3c-0.95,0-1.9,0-2.84,0c-0.13,0-0.27,0-0.4,0
			C5.06,2.09,5.06,2.39,5.25,2.39L5.25,2.39z"/>
	</g>
</g>
<g>
	<g>
		<path d="M5.25,2.83c0.95,0,1.9,0,2.84,0c0.13,0,0.27,0,0.4,0c0.19,0,0.19-0.3,0-0.3c-0.95,0-1.9,0-2.84,0c-0.13,0-0.27,0-0.4,0
			C5.06,2.53,5.06,2.83,5.25,2.83L5.25,2.83z"/>
	</g>
</g>
<g>
	<g>
		<path d="M5.25,3.27c0.95,0,1.9,0,2.84,0c0.13,0,0.27,0,0.4,0c0.19,0,0.19-0.3,0-0.3c-0.95,0-1.9,0-2.84,0c-0.13,0-0.27,0-0.4,0
			C5.06,2.97,5.06,3.27,5.25,3.27L5.25,3.27z"/>
	</g>
</g>
<g>
	<g>
		<path d="M5.25,3.72c0.95,0,1.9,0,2.84,0c0.13,0,0.27,0,0.4,0c0.19,0,0.19-0.3,0-0.3c-0.95,0-1.9,0-2.84,0c-0.13,0-0.27,0-0.4,0
			C5.06,3.42,5.06,3.72,5.25,3.72L5.25,3.72z"/>
	</g>
</g>
<g>
	<rect x="0.44" y="7.87" class="st3" width="6.44" height="1.5"/>
	<g>
		<path d="M0.56,9.37c0-0.5,0-1,0-1.5C0.52,7.91,0.48,7.95,0.44,7.99c1.88,0,3.76,0,5.64,0c0.27,0,0.53,0,0.8,0
			C6.84,7.95,6.8,7.91,6.76,7.87c0,0.5,0,1,0,1.5C6.8,9.33,6.84,9.29,6.88,9.25c-1.88,0-3.76,0-5.64,0c-0.27,0-0.53,0-0.8,0
			c-0.15,0-0.15,0.24,0,0.24c1.88,0,3.76,0,5.64,0c0.27,0,0.53,0,0.8,0C6.94,9.49,7,9.43,7,9.37c0-0.5,0-1,0-1.5
			C7,7.8,6.94,7.75,6.88,7.75c-1.88,0-3.76,0-5.64,0c-0.27,0-0.53,0-0.8,0c-0.06,0-0.12,0.05-0.12,0.12c0,0.5,0,1,0,1.5
			C0.32,9.52,0.56,9.52,0.56,9.37z"/>
	</g>
</g>
<g>
	<rect x="0.44" y="4.87" class="st4" width="3.59" height="1.5"/>
	<g>
		<path d="M0.56,6.37c0-0.5,0-1,0-1.5C0.52,4.91,0.48,4.95,0.44,4.99c1.05,0,2.09,0,3.14,0c0.15,0,0.3,0,0.44,0
			C3.98,4.95,3.94,4.91,3.9,4.87c0,0.5,0,1,0,1.5c0.04-0.04,0.08-0.08,0.12-0.12c-1.05,0-2.09,0-3.14,0c-0.15,0-0.3,0-0.44,0
			c-0.15,0-0.15,0.24,0,0.24c1.05,0,2.09,0,3.14,0c0.15,0,0.3,0,0.44,0c0.06,0,0.12-0.05,0.12-0.12c0-0.5,0-1,0-1.5
			c0-0.06-0.05-0.12-0.12-0.12c-1.05,0-2.09,0-3.14,0c-0.15,0-0.3,0-0.44,0c-0.06,0-0.12,0.05-0.12,0.12c0,0.5,0,1,0,1.5
			C0.32,6.52,0.56,6.52,0.56,6.37z"/>
	</g>
</g>
<g>
	<rect x="0.44" y="3.37" class="st5" width="2.86" height="1.5"/>
	<g>
		<path d="M0.56,4.87c0-0.5,0-1,0-1.5C0.52,3.41,0.48,3.45,0.44,3.49c0.84,0,1.67,0,2.51,0c0.12,0,0.24,0,0.35,0
			C3.26,3.45,3.22,3.41,3.18,3.37c0,0.5,0,1,0,1.5C3.22,4.83,3.26,4.79,3.3,4.75c-0.84,0-1.67,0-2.51,0c-0.12,0-0.24,0-0.35,0
			c-0.15,0-0.15,0.24,0,0.24c0.84,0,1.67,0,2.51,0c0.12,0,0.24,0,0.35,0c0.06,0,0.12-0.05,0.12-0.12c0-0.5,0-1,0-1.5
			c0-0.06-0.05-0.12-0.12-0.12c-0.84,0-1.67,0-2.51,0c-0.12,0-0.24,0-0.35,0c-0.06,0-0.12,0.05-0.12,0.12c0,0.5,0,1,0,1.5
			C0.32,5.02,0.56,5.02,0.56,4.87z"/>
	</g>
</g>
<text transform="matrix(1.2114 0 0 1 5.089 6.3678)" class="st3 st6 st7">$</text>
<text transform="matrix(1.2114 0 0 1 6.7833 6.3678)" class="st3 st6 st7">$</text>
</svg>
